HIERARCHY
ROOT hip
{
	OFFSET 0.000000 0.000000 0.000000 
	CHANNELS 6 Xposition Yposition Zposition Xrotation Zrotation Yrotation
	JOINT abdomen
	{
		OFFSET 0.000000 3.402643 0.000000 
		CHANNELS 3 Xrotation Zrotation Yrotation
		JOINT chest
		{
			OFFSET 0.000000 8.438565 -0.680529 
			CHANNELS 3 Xrotation Zrotation Yrotation
			JOINT neck
			{
				OFFSET 0.000000 10.207942 -0.272212 
				CHANNELS 3 Xrotation Zrotation Yrotation
				JOINT head
				{
					OFFSET 0.000000 3.130431 0.000000 
					CHANNELS 3 Xrotation Zrotation Yrotation
					End Site
					{
						OFFSET 0.000000 3.130435 0.000000 
					}
				}
			}
			JOINT lCollar
			{
				OFFSET 3.470700 6.669187 -0.816635 
				CHANNELS 3 Yrotation Zrotation Xrotation
				JOINT lShldr
				{
					OFFSET 3.198488 0.000000 0.000000 
					CHANNELS 3 Zrotation Yrotation Xrotation
					JOINT lForeArm
					{
						OFFSET 10.139888 0.000000 0.000000 
						CHANNELS 3 Yrotation Zrotation Xrotation
						JOINT lHand
						{
							OFFSET 8.370511 0.000000 0.000000 
							CHANNELS 3 Zrotation Yrotation Xrotation
							End Site
							{
								OFFSET 4.083176 0.000000 0.000000 
							}
						}
					}
				}
			}
			JOINT rCollar
			{
				OFFSET -3.470700 6.669187 -0.816635 
				CHANNELS 3 Yrotation Zrotation Xrotation
				JOINT rShldr
				{
					OFFSET -3.198488 0.000000 0.000000 
					CHANNELS 3 Zrotation Yrotation Xrotation
					JOINT rForeArm
					{
						OFFSET -10.139888 0.000000 0.000000 
						CHANNELS 3 Yrotation Zrotation Xrotation
						JOINT rHand
						{
							OFFSET -8.370511 0.000000 0.000000 
							CHANNELS 3 Zrotation Yrotation Xrotation
							End Site
							{
								OFFSET -4.083176 0.000000 0.000000 
							}
						}
					}
				}
			}
		}
	}
	JOINT lThigh
	{
		OFFSET 5.308129 -1.633274 1.361059 
		CHANNELS 3 Xrotation Zrotation Yrotation
		JOINT lShin
		{
			OFFSET -2.041588 -20.007561 0.000000 
			CHANNELS 3 Xrotation Zrotation Yrotation
			JOINT lFoot
			{
				OFFSET 0.000000 -19.190928 -1.224953 
				CHANNELS 3 Xrotation Yrotation Zrotation
				End Site
				{
					OFFSET 0.000000 -2.449906 4.627600 
				}
			}
		}
	}
	JOINT rThigh
	{
		OFFSET -5.308129 -1.633274 1.361059 
		CHANNELS 3 Xrotation Zrotation Yrotation
		JOINT rShin
		{
			OFFSET 2.041588 -20.007561 0.000000 
			CHANNELS 3 Xrotation Zrotation Yrotation
			JOINT rFoot
			{
				OFFSET 0.000000 -19.190928 -1.224953 
				CHANNELS 3 Xrotation Yrotation Zrotation
				End Site
				{
					OFFSET 0.000000 -2.449906 4.627600 
				}
			}
		}
	}
}
MOTION
Frames: 6
Frame Time: 0.011111
31.186529 52.872398 -73.280472 2.001942 5.890512 -27.830465 33.596497 -3.364557 -6.986870 -24.426373 2.113761 -1.487560 -10.154222 1.148424 1.541805 7.334113 0.542106 3.454841 8.861669 -1.932660 3.351237 -70.574661 -59.310173 44.132439 -48.911331 7.438569 7.714341 8.524705 12.647240 -36.399792 -6.806992 -0.756156 2.905732 73.997559 26.668898 27.857193 50.728298 -7.868840 8.448947 -8.534408 -12.637552 30.433451 8.639187 -1.113195 -4.175714 16.280123 -5.896499 -3.029555 -16.923166 1.875596 -2.360030 -27.727190 -9.247207 10.390372 38.051472 4.798265 5.840618 -20.402040 -14.098972 -1.782435 
30.939371 52.894241 -72.832024 2.219106 5.719197 -27.759592 33.489361 -3.131591 -6.579726 -24.434782 1.660929 -1.391652 -10.391755 2.061594 1.501115 6.994010 0.228032 3.614195 8.861669 -1.932660 3.351237 -69.927910 -59.763077 45.669666 -49.557499 7.596429 7.974843 8.524705 12.647240 -35.335339 -6.806992 -0.756156 2.905732 74.594208 26.461658 26.666090 50.393635 -7.795038 8.319266 -8.534408 -12.637552 29.310404 9.326375 -0.771693 -4.234755 15.642607 -5.907722 -2.914167 -16.599985 1.626496 -2.446203 -27.752462 -8.993640 10.887750 35.374844 4.978288 5.525594 -20.250538 -14.715587 -1.886833 
30.689091 52.931068 -72.369537 2.404525 5.770915 -27.987249 33.121845 -2.982700 -6.461572 -24.190317 1.559751 -1.376153 -10.537163 2.310064 1.689606 6.754474 0.012821 4.043652 8.861669 -1.932660 3.351237 -69.577843 -59.996811 46.222805 -50.204483 7.745522 8.230412 8.524705 12.647240 -34.895885 -6.806992 -0.756156 2.905732 74.655281 26.368200 26.490446 50.227058 -7.759813 8.248871 -8.534408 -12.637552 28.988138 10.037098 -0.810493 -4.052149 15.063977 -5.917242 -2.843709 -16.328814 1.530875 -2.511644 -27.989307 -8.856851 11.740532 32.879128 5.146158 5.207243 -19.536896 -14.790048 -1.679780 
30.434444 52.932941 -71.944504 2.528340 5.930758 -28.606798 32.735271 -2.978764 -6.511485 -23.878271 1.760603 -1.401334 -10.482405 1.838718 1.997006 6.660774 0.199641 4.526201 8.861669 -1.932660 3.351237 -69.331833 -60.170334 45.883442 -50.904606 7.900434 8.520557 8.524705 12.647240 -34.710339 -6.806992 -0.756156 2.905732 74.393478 26.576721 26.750240 49.819527 -7.665617 8.090945 -8.534408 -12.637552 28.753765 10.823793 -0.966746 -3.529917 14.390471 -5.946199 -2.746969 -15.914361 1.663465 -2.507561 -28.357290 -8.720394 12.913333 30.306353 5.296877 4.892440 -18.075462 -14.275437 -1.119462 
30.168249 52.932320 -71.585938 2.713935 6.139440 -28.758389 32.445305 -2.779272 -7.091102 -23.909473 2.430886 -1.598456 -9.936625 0.911848 2.546985 5.706213 0.583750 5.373478 8.861669 -1.932660 3.351237 -69.308823 -60.053154 45.342842 -51.564751 8.041103 8.784474 8.524705 12.647240 -34.231819 -6.806992 -0.756156 2.905732 73.675804 26.695826 27.470650 49.455452 -7.584373 7.942809 -8.534408 -12.637552 28.685402 11.443447 -0.947559 -3.440374 13.589214 -5.936528 -2.634576 -15.331163 1.827587 -2.499727 -28.827318 -8.642452 14.175406 27.865511 5.424064 4.569279 -16.810593 -14.393085 -0.767069 
29.902681 52.927952 -71.098167 2.738464 6.313894 -29.148539 32.163742 -2.790329 -7.165284 -23.803089 2.734440 -1.635005 -10.153093 0.189935 2.447549 7.097600 0.601952 4.973961 8.861669 -1.932660 3.351237 -69.379486 -59.787460 45.195454 -52.340511 8.195065 9.103879 8.524705 12.647240 -34.016979 -6.806992 -0.756156 2.905732 73.301590 26.609287 27.584751 49.246067 -7.529146 7.856644 -8.534408 -12.637552 28.353374 12.389256 -1.171735 -3.192238 12.893028 -5.964240 -2.535637 -14.955384 1.915093 -2.510672 -29.070847 -8.642453 15.639743 25.552065 5.551263 4.244094 -16.100147 -14.554370 -0.592007 
